<mxfile host="app.diagrams.net" agent="Mozilla/5.0 (Windows NT 10.0; Win64; x64) AppleWebKit/537.36 (KHTML, like Gecko) Chrome/126.0.0.0 Safari/537.36" version="24.7.4">
  <diagram name="第 1 页" id="Wg0HarawB00_JTyKr74h">
    <mxGraphModel dx="2636" dy="952" grid="1" gridSize="10" guides="1" tooltips="1" connect="1" arrows="1" fold="1" page="1" pageScale="1" pageWidth="827" pageHeight="1169" math="0" shadow="0">
      <root>
        <mxCell id="0" />
        <mxCell id="1" parent="0" />
        <mxCell id="zSqDcAT_bvlXsyUkPTx3-95" value="" style="endArrow=none;html=1;rounded=0;" edge="1" parent="1">
          <mxGeometry width="50" height="50" relative="1" as="geometry">
            <mxPoint x="-30" y="380" as="sourcePoint" />
            <mxPoint y="380" as="targetPoint" />
          </mxGeometry>
        </mxCell>
        <mxCell id="zSqDcAT_bvlXsyUkPTx3-96" value="" style="endArrow=none;html=1;rounded=0;" edge="1" parent="1">
          <mxGeometry width="50" height="50" relative="1" as="geometry">
            <mxPoint y="360" as="sourcePoint" />
            <mxPoint x="30" y="360" as="targetPoint" />
          </mxGeometry>
        </mxCell>
        <mxCell id="zSqDcAT_bvlXsyUkPTx3-97" value="" style="endArrow=none;html=1;rounded=0;" edge="1" parent="1">
          <mxGeometry width="50" height="50" relative="1" as="geometry">
            <mxPoint x="30" y="380" as="sourcePoint" />
            <mxPoint x="60" y="380" as="targetPoint" />
          </mxGeometry>
        </mxCell>
        <mxCell id="zSqDcAT_bvlXsyUkPTx3-98" value="" style="endArrow=none;html=1;rounded=0;" edge="1" parent="1">
          <mxGeometry width="50" height="50" relative="1" as="geometry">
            <mxPoint y="360" as="sourcePoint" />
            <mxPoint y="380" as="targetPoint" />
          </mxGeometry>
        </mxCell>
        <mxCell id="zSqDcAT_bvlXsyUkPTx3-99" value="" style="endArrow=none;html=1;rounded=0;" edge="1" parent="1">
          <mxGeometry width="50" height="50" relative="1" as="geometry">
            <mxPoint x="30" y="360" as="sourcePoint" />
            <mxPoint x="30" y="380" as="targetPoint" />
          </mxGeometry>
        </mxCell>
        <mxCell id="zSqDcAT_bvlXsyUkPTx3-100" value="FETCH" style="rounded=0;whiteSpace=wrap;html=1;fillColor=#f5f5f5;fontColor=#333333;strokeColor=#666666;" vertex="1" parent="1">
          <mxGeometry y="529.57" width="60" height="20" as="geometry" />
        </mxCell>
        <mxCell id="zSqDcAT_bvlXsyUkPTx3-101" value="DECODE" style="rounded=0;whiteSpace=wrap;html=1;fillColor=#fff2cc;strokeColor=#d6b656;" vertex="1" parent="1">
          <mxGeometry x="60" y="529.57" width="60" height="20" as="geometry" />
        </mxCell>
        <mxCell id="zSqDcAT_bvlXsyUkPTx3-102" value="RR" style="rounded=0;whiteSpace=wrap;html=1;fillColor=#e1d5e7;strokeColor=#9673a6;" vertex="1" parent="1">
          <mxGeometry x="120" y="529.57" width="60" height="20" as="geometry" />
        </mxCell>
        <mxCell id="zSqDcAT_bvlXsyUkPTx3-103" value="ISSUE" style="rounded=0;whiteSpace=wrap;html=1;fillColor=#ffe6cc;strokeColor=#d79b00;" vertex="1" parent="1">
          <mxGeometry x="180" y="529.57" width="180" height="20" as="geometry" />
        </mxCell>
        <mxCell id="zSqDcAT_bvlXsyUkPTx3-104" value="EXE" style="rounded=0;whiteSpace=wrap;html=1;fillColor=#f8cecc;strokeColor=#b85450;" vertex="1" parent="1">
          <mxGeometry x="360" y="529.57" width="60" height="20" as="geometry" />
        </mxCell>
        <mxCell id="zSqDcAT_bvlXsyUkPTx3-105" value="WB" style="rounded=0;whiteSpace=wrap;html=1;fillColor=#d5e8d4;strokeColor=#82b366;" vertex="1" parent="1">
          <mxGeometry x="420" y="529.57" width="120" height="20" as="geometry" />
        </mxCell>
        <mxCell id="zSqDcAT_bvlXsyUkPTx3-106" value="RETIRE" style="rounded=0;whiteSpace=wrap;html=1;fillColor=#dae8fc;strokeColor=#6c8ebf;" vertex="1" parent="1">
          <mxGeometry x="540" y="529.57" width="60" height="20" as="geometry" />
        </mxCell>
        <mxCell id="zSqDcAT_bvlXsyUkPTx3-166" value="" style="endArrow=none;html=1;rounded=0;" edge="1" parent="1">
          <mxGeometry width="50" height="50" relative="1" as="geometry">
            <mxPoint x="60" y="360" as="sourcePoint" />
            <mxPoint x="60" y="380" as="targetPoint" />
          </mxGeometry>
        </mxCell>
        <mxCell id="zSqDcAT_bvlXsyUkPTx3-167" value="" style="endArrow=none;html=1;rounded=0;" edge="1" parent="1">
          <mxGeometry width="50" height="50" relative="1" as="geometry">
            <mxPoint x="60" y="360" as="sourcePoint" />
            <mxPoint x="90" y="360" as="targetPoint" />
          </mxGeometry>
        </mxCell>
        <mxCell id="zSqDcAT_bvlXsyUkPTx3-168" value="" style="endArrow=none;html=1;rounded=0;" edge="1" parent="1">
          <mxGeometry width="50" height="50" relative="1" as="geometry">
            <mxPoint x="90" y="360" as="sourcePoint" />
            <mxPoint x="90" y="380" as="targetPoint" />
          </mxGeometry>
        </mxCell>
        <mxCell id="zSqDcAT_bvlXsyUkPTx3-169" value="" style="endArrow=none;html=1;rounded=0;" edge="1" parent="1">
          <mxGeometry width="50" height="50" relative="1" as="geometry">
            <mxPoint x="90" y="380" as="sourcePoint" />
            <mxPoint x="120" y="380" as="targetPoint" />
          </mxGeometry>
        </mxCell>
        <mxCell id="zSqDcAT_bvlXsyUkPTx3-170" value="" style="endArrow=none;html=1;rounded=0;" edge="1" parent="1">
          <mxGeometry width="50" height="50" relative="1" as="geometry">
            <mxPoint x="120" y="360" as="sourcePoint" />
            <mxPoint x="150" y="360" as="targetPoint" />
          </mxGeometry>
        </mxCell>
        <mxCell id="zSqDcAT_bvlXsyUkPTx3-171" value="" style="endArrow=none;html=1;rounded=0;" edge="1" parent="1">
          <mxGeometry width="50" height="50" relative="1" as="geometry">
            <mxPoint x="150" y="380" as="sourcePoint" />
            <mxPoint x="180" y="380" as="targetPoint" />
          </mxGeometry>
        </mxCell>
        <mxCell id="zSqDcAT_bvlXsyUkPTx3-172" value="" style="endArrow=none;html=1;rounded=0;" edge="1" parent="1">
          <mxGeometry width="50" height="50" relative="1" as="geometry">
            <mxPoint x="120" y="360" as="sourcePoint" />
            <mxPoint x="120" y="380" as="targetPoint" />
          </mxGeometry>
        </mxCell>
        <mxCell id="zSqDcAT_bvlXsyUkPTx3-173" value="" style="endArrow=none;html=1;rounded=0;" edge="1" parent="1">
          <mxGeometry width="50" height="50" relative="1" as="geometry">
            <mxPoint x="150" y="360" as="sourcePoint" />
            <mxPoint x="150" y="380" as="targetPoint" />
          </mxGeometry>
        </mxCell>
        <mxCell id="zSqDcAT_bvlXsyUkPTx3-174" value="" style="endArrow=none;html=1;rounded=0;" edge="1" parent="1">
          <mxGeometry width="50" height="50" relative="1" as="geometry">
            <mxPoint x="180" y="360" as="sourcePoint" />
            <mxPoint x="180" y="380" as="targetPoint" />
          </mxGeometry>
        </mxCell>
        <mxCell id="zSqDcAT_bvlXsyUkPTx3-175" value="" style="endArrow=none;html=1;rounded=0;" edge="1" parent="1">
          <mxGeometry width="50" height="50" relative="1" as="geometry">
            <mxPoint x="180" y="360" as="sourcePoint" />
            <mxPoint x="210" y="360" as="targetPoint" />
          </mxGeometry>
        </mxCell>
        <mxCell id="zSqDcAT_bvlXsyUkPTx3-176" value="" style="endArrow=none;html=1;rounded=0;" edge="1" parent="1">
          <mxGeometry width="50" height="50" relative="1" as="geometry">
            <mxPoint x="210" y="360" as="sourcePoint" />
            <mxPoint x="210" y="380" as="targetPoint" />
          </mxGeometry>
        </mxCell>
        <mxCell id="zSqDcAT_bvlXsyUkPTx3-177" value="" style="endArrow=none;html=1;rounded=0;" edge="1" parent="1">
          <mxGeometry width="50" height="50" relative="1" as="geometry">
            <mxPoint x="210" y="380" as="sourcePoint" />
            <mxPoint x="240" y="380" as="targetPoint" />
          </mxGeometry>
        </mxCell>
        <mxCell id="zSqDcAT_bvlXsyUkPTx3-178" value="" style="endArrow=none;html=1;rounded=0;" edge="1" parent="1">
          <mxGeometry width="50" height="50" relative="1" as="geometry">
            <mxPoint x="240" y="360" as="sourcePoint" />
            <mxPoint x="270" y="360" as="targetPoint" />
          </mxGeometry>
        </mxCell>
        <mxCell id="zSqDcAT_bvlXsyUkPTx3-179" value="" style="endArrow=none;html=1;rounded=0;" edge="1" parent="1">
          <mxGeometry width="50" height="50" relative="1" as="geometry">
            <mxPoint x="270" y="380" as="sourcePoint" />
            <mxPoint x="300" y="380" as="targetPoint" />
          </mxGeometry>
        </mxCell>
        <mxCell id="zSqDcAT_bvlXsyUkPTx3-180" value="" style="endArrow=none;html=1;rounded=0;" edge="1" parent="1">
          <mxGeometry width="50" height="50" relative="1" as="geometry">
            <mxPoint x="240" y="360" as="sourcePoint" />
            <mxPoint x="240" y="380" as="targetPoint" />
          </mxGeometry>
        </mxCell>
        <mxCell id="zSqDcAT_bvlXsyUkPTx3-181" value="" style="endArrow=none;html=1;rounded=0;" edge="1" parent="1">
          <mxGeometry width="50" height="50" relative="1" as="geometry">
            <mxPoint x="270" y="360" as="sourcePoint" />
            <mxPoint x="270" y="380" as="targetPoint" />
          </mxGeometry>
        </mxCell>
        <mxCell id="zSqDcAT_bvlXsyUkPTx3-182" value="" style="endArrow=none;html=1;rounded=0;" edge="1" parent="1">
          <mxGeometry width="50" height="50" relative="1" as="geometry">
            <mxPoint x="300" y="360" as="sourcePoint" />
            <mxPoint x="300" y="380" as="targetPoint" />
          </mxGeometry>
        </mxCell>
        <mxCell id="zSqDcAT_bvlXsyUkPTx3-183" value="" style="endArrow=none;html=1;rounded=0;" edge="1" parent="1">
          <mxGeometry width="50" height="50" relative="1" as="geometry">
            <mxPoint x="300" y="360" as="sourcePoint" />
            <mxPoint x="330" y="360" as="targetPoint" />
          </mxGeometry>
        </mxCell>
        <mxCell id="zSqDcAT_bvlXsyUkPTx3-184" value="" style="endArrow=none;html=1;rounded=0;" edge="1" parent="1">
          <mxGeometry width="50" height="50" relative="1" as="geometry">
            <mxPoint x="330" y="360" as="sourcePoint" />
            <mxPoint x="330" y="380" as="targetPoint" />
          </mxGeometry>
        </mxCell>
        <mxCell id="zSqDcAT_bvlXsyUkPTx3-185" value="" style="endArrow=none;html=1;rounded=0;" edge="1" parent="1">
          <mxGeometry width="50" height="50" relative="1" as="geometry">
            <mxPoint x="330" y="380" as="sourcePoint" />
            <mxPoint x="360" y="380" as="targetPoint" />
          </mxGeometry>
        </mxCell>
        <mxCell id="zSqDcAT_bvlXsyUkPTx3-186" value="" style="endArrow=none;html=1;rounded=0;" edge="1" parent="1">
          <mxGeometry width="50" height="50" relative="1" as="geometry">
            <mxPoint x="360" y="360" as="sourcePoint" />
            <mxPoint x="390" y="360" as="targetPoint" />
          </mxGeometry>
        </mxCell>
        <mxCell id="zSqDcAT_bvlXsyUkPTx3-187" value="" style="endArrow=none;html=1;rounded=0;" edge="1" parent="1">
          <mxGeometry width="50" height="50" relative="1" as="geometry">
            <mxPoint x="390" y="380" as="sourcePoint" />
            <mxPoint x="420" y="380" as="targetPoint" />
          </mxGeometry>
        </mxCell>
        <mxCell id="zSqDcAT_bvlXsyUkPTx3-188" value="" style="endArrow=none;html=1;rounded=0;" edge="1" parent="1">
          <mxGeometry width="50" height="50" relative="1" as="geometry">
            <mxPoint x="360" y="360" as="sourcePoint" />
            <mxPoint x="360" y="380" as="targetPoint" />
          </mxGeometry>
        </mxCell>
        <mxCell id="zSqDcAT_bvlXsyUkPTx3-189" value="" style="endArrow=none;html=1;rounded=0;" edge="1" parent="1">
          <mxGeometry width="50" height="50" relative="1" as="geometry">
            <mxPoint x="390" y="360" as="sourcePoint" />
            <mxPoint x="390" y="380" as="targetPoint" />
          </mxGeometry>
        </mxCell>
        <mxCell id="zSqDcAT_bvlXsyUkPTx3-206" value="" style="endArrow=none;html=1;rounded=0;" edge="1" parent="1">
          <mxGeometry width="50" height="50" relative="1" as="geometry">
            <mxPoint x="420" y="360" as="sourcePoint" />
            <mxPoint x="420" y="380" as="targetPoint" />
          </mxGeometry>
        </mxCell>
        <mxCell id="zSqDcAT_bvlXsyUkPTx3-207" value="" style="endArrow=none;html=1;rounded=0;" edge="1" parent="1">
          <mxGeometry width="50" height="50" relative="1" as="geometry">
            <mxPoint x="420" y="360" as="sourcePoint" />
            <mxPoint x="450" y="360" as="targetPoint" />
          </mxGeometry>
        </mxCell>
        <mxCell id="zSqDcAT_bvlXsyUkPTx3-208" value="" style="endArrow=none;html=1;rounded=0;" edge="1" parent="1">
          <mxGeometry width="50" height="50" relative="1" as="geometry">
            <mxPoint x="450" y="360" as="sourcePoint" />
            <mxPoint x="450" y="380" as="targetPoint" />
          </mxGeometry>
        </mxCell>
        <mxCell id="zSqDcAT_bvlXsyUkPTx3-209" value="" style="endArrow=none;html=1;rounded=0;" edge="1" parent="1">
          <mxGeometry width="50" height="50" relative="1" as="geometry">
            <mxPoint x="450" y="380" as="sourcePoint" />
            <mxPoint x="480" y="380" as="targetPoint" />
          </mxGeometry>
        </mxCell>
        <mxCell id="zSqDcAT_bvlXsyUkPTx3-210" value="" style="endArrow=none;html=1;rounded=0;" edge="1" parent="1">
          <mxGeometry width="50" height="50" relative="1" as="geometry">
            <mxPoint x="480" y="360" as="sourcePoint" />
            <mxPoint x="510" y="360" as="targetPoint" />
          </mxGeometry>
        </mxCell>
        <mxCell id="zSqDcAT_bvlXsyUkPTx3-211" value="" style="endArrow=none;html=1;rounded=0;" edge="1" parent="1">
          <mxGeometry width="50" height="50" relative="1" as="geometry">
            <mxPoint x="510" y="380" as="sourcePoint" />
            <mxPoint x="540" y="380" as="targetPoint" />
          </mxGeometry>
        </mxCell>
        <mxCell id="zSqDcAT_bvlXsyUkPTx3-212" value="" style="endArrow=none;html=1;rounded=0;" edge="1" parent="1">
          <mxGeometry width="50" height="50" relative="1" as="geometry">
            <mxPoint x="480" y="360" as="sourcePoint" />
            <mxPoint x="480" y="380" as="targetPoint" />
          </mxGeometry>
        </mxCell>
        <mxCell id="zSqDcAT_bvlXsyUkPTx3-213" value="" style="endArrow=none;html=1;rounded=0;" edge="1" parent="1">
          <mxGeometry width="50" height="50" relative="1" as="geometry">
            <mxPoint x="510" y="360" as="sourcePoint" />
            <mxPoint x="510" y="380" as="targetPoint" />
          </mxGeometry>
        </mxCell>
        <mxCell id="zSqDcAT_bvlXsyUkPTx3-214" value="" style="endArrow=none;html=1;rounded=0;" edge="1" parent="1">
          <mxGeometry width="50" height="50" relative="1" as="geometry">
            <mxPoint x="540" y="360" as="sourcePoint" />
            <mxPoint x="540" y="380" as="targetPoint" />
          </mxGeometry>
        </mxCell>
        <mxCell id="zSqDcAT_bvlXsyUkPTx3-215" value="" style="endArrow=none;html=1;rounded=0;" edge="1" parent="1">
          <mxGeometry width="50" height="50" relative="1" as="geometry">
            <mxPoint x="540" y="360" as="sourcePoint" />
            <mxPoint x="570" y="360" as="targetPoint" />
          </mxGeometry>
        </mxCell>
        <mxCell id="zSqDcAT_bvlXsyUkPTx3-216" value="" style="endArrow=none;html=1;rounded=0;" edge="1" parent="1">
          <mxGeometry width="50" height="50" relative="1" as="geometry">
            <mxPoint x="570" y="360" as="sourcePoint" />
            <mxPoint x="570" y="380" as="targetPoint" />
          </mxGeometry>
        </mxCell>
        <mxCell id="zSqDcAT_bvlXsyUkPTx3-217" value="" style="endArrow=none;html=1;rounded=0;" edge="1" parent="1">
          <mxGeometry width="50" height="50" relative="1" as="geometry">
            <mxPoint x="570" y="380" as="sourcePoint" />
            <mxPoint x="600" y="380" as="targetPoint" />
          </mxGeometry>
        </mxCell>
        <mxCell id="zSqDcAT_bvlXsyUkPTx3-218" value="" style="endArrow=none;html=1;rounded=0;" edge="1" parent="1">
          <mxGeometry width="50" height="50" relative="1" as="geometry">
            <mxPoint x="600" y="360" as="sourcePoint" />
            <mxPoint x="630" y="360" as="targetPoint" />
          </mxGeometry>
        </mxCell>
        <mxCell id="zSqDcAT_bvlXsyUkPTx3-219" value="" style="endArrow=none;html=1;rounded=0;" edge="1" parent="1">
          <mxGeometry width="50" height="50" relative="1" as="geometry">
            <mxPoint x="630" y="380" as="sourcePoint" />
            <mxPoint x="660" y="380" as="targetPoint" />
          </mxGeometry>
        </mxCell>
        <mxCell id="zSqDcAT_bvlXsyUkPTx3-220" value="" style="endArrow=none;html=1;rounded=0;" edge="1" parent="1">
          <mxGeometry width="50" height="50" relative="1" as="geometry">
            <mxPoint x="600" y="360" as="sourcePoint" />
            <mxPoint x="600" y="380" as="targetPoint" />
          </mxGeometry>
        </mxCell>
        <mxCell id="zSqDcAT_bvlXsyUkPTx3-221" value="" style="endArrow=none;html=1;rounded=0;" edge="1" parent="1">
          <mxGeometry width="50" height="50" relative="1" as="geometry">
            <mxPoint x="630" y="360" as="sourcePoint" />
            <mxPoint x="630" y="380" as="targetPoint" />
          </mxGeometry>
        </mxCell>
        <mxCell id="zSqDcAT_bvlXsyUkPTx3-222" value="FETCH" style="rounded=0;whiteSpace=wrap;html=1;fillColor=#f5f5f5;fontColor=#333333;strokeColor=#666666;" vertex="1" parent="1">
          <mxGeometry x="60" y="559.57" width="60" height="20" as="geometry" />
        </mxCell>
        <mxCell id="zSqDcAT_bvlXsyUkPTx3-223" value="DECODE" style="rounded=0;whiteSpace=wrap;html=1;fillColor=#fff2cc;strokeColor=#d6b656;" vertex="1" parent="1">
          <mxGeometry x="120" y="559.57" width="60" height="20" as="geometry" />
        </mxCell>
        <mxCell id="zSqDcAT_bvlXsyUkPTx3-224" value="RR" style="rounded=0;whiteSpace=wrap;html=1;fillColor=#e1d5e7;strokeColor=#9673a6;" vertex="1" parent="1">
          <mxGeometry x="180" y="559.57" width="420" height="20" as="geometry" />
        </mxCell>
        <mxCell id="zSqDcAT_bvlXsyUkPTx3-228" value="RETIRE" style="rounded=0;whiteSpace=wrap;html=1;fillColor=#dae8fc;strokeColor=#6c8ebf;" vertex="1" parent="1">
          <mxGeometry x="600" y="559.57" width="60" height="20" as="geometry" />
        </mxCell>
        <mxCell id="zSqDcAT_bvlXsyUkPTx3-124" value="EXP" style="ellipse;shape=cloud;whiteSpace=wrap;html=1;fillColor=#a20025;fontColor=#ffffff;strokeColor=#6F0000;" vertex="1" parent="1">
          <mxGeometry x="605" y="554.57" width="50" height="30" as="geometry" />
        </mxCell>
        <mxCell id="zSqDcAT_bvlXsyUkPTx3-251" value="FETCH" style="rounded=0;whiteSpace=wrap;html=1;fillColor=#f5f5f5;fontColor=#333333;strokeColor=#666666;" vertex="1" parent="1">
          <mxGeometry x="-60" y="499.57" width="60" height="20" as="geometry" />
        </mxCell>
        <mxCell id="zSqDcAT_bvlXsyUkPTx3-252" value="DECODE" style="rounded=0;whiteSpace=wrap;html=1;fillColor=#fff2cc;strokeColor=#d6b656;" vertex="1" parent="1">
          <mxGeometry y="499.57" width="60" height="20" as="geometry" />
        </mxCell>
        <mxCell id="zSqDcAT_bvlXsyUkPTx3-253" value="RR" style="rounded=0;whiteSpace=wrap;html=1;fillColor=#e1d5e7;strokeColor=#9673a6;" vertex="1" parent="1">
          <mxGeometry x="60" y="499.57" width="60" height="20" as="geometry" />
        </mxCell>
        <mxCell id="zSqDcAT_bvlXsyUkPTx3-254" value="ISSUE" style="rounded=0;whiteSpace=wrap;html=1;fillColor=#ffe6cc;strokeColor=#d79b00;" vertex="1" parent="1">
          <mxGeometry x="120" y="499.57" width="60" height="20" as="geometry" />
        </mxCell>
        <mxCell id="zSqDcAT_bvlXsyUkPTx3-255" value="EXE" style="rounded=0;whiteSpace=wrap;html=1;fillColor=#f8cecc;strokeColor=#b85450;" vertex="1" parent="1">
          <mxGeometry x="180" y="499.57" width="180" height="20" as="geometry" />
        </mxCell>
        <mxCell id="zSqDcAT_bvlXsyUkPTx3-256" value="WB" style="rounded=0;whiteSpace=wrap;html=1;fillColor=#d5e8d4;strokeColor=#82b366;" vertex="1" parent="1">
          <mxGeometry x="360" y="499.57" width="120" height="20" as="geometry" />
        </mxCell>
        <mxCell id="zSqDcAT_bvlXsyUkPTx3-257" value="RETIRE" style="rounded=0;whiteSpace=wrap;html=1;fillColor=#dae8fc;strokeColor=#6c8ebf;" vertex="1" parent="1">
          <mxGeometry x="480" y="499.57" width="60" height="20" as="geometry" />
        </mxCell>
        <mxCell id="zSqDcAT_bvlXsyUkPTx3-258" value="FETCH" style="rounded=0;whiteSpace=wrap;html=1;fillColor=#f5f5f5;fontColor=#333333;strokeColor=#666666;" vertex="1" parent="1">
          <mxGeometry x="-120" y="469.57" width="60" height="20" as="geometry" />
        </mxCell>
        <mxCell id="zSqDcAT_bvlXsyUkPTx3-259" value="DECODE" style="rounded=0;whiteSpace=wrap;html=1;fillColor=#fff2cc;strokeColor=#d6b656;" vertex="1" parent="1">
          <mxGeometry x="-60" y="469.57" width="60" height="20" as="geometry" />
        </mxCell>
        <mxCell id="zSqDcAT_bvlXsyUkPTx3-260" value="RR" style="rounded=0;whiteSpace=wrap;html=1;fillColor=#e1d5e7;strokeColor=#9673a6;" vertex="1" parent="1">
          <mxGeometry y="469.57" width="60" height="20" as="geometry" />
        </mxCell>
        <mxCell id="zSqDcAT_bvlXsyUkPTx3-261" value="ISSUE" style="rounded=0;whiteSpace=wrap;html=1;fillColor=#ffe6cc;strokeColor=#d79b00;" vertex="1" parent="1">
          <mxGeometry x="60" y="469.57" width="180" height="20" as="geometry" />
        </mxCell>
        <mxCell id="zSqDcAT_bvlXsyUkPTx3-262" value="EXE" style="rounded=0;whiteSpace=wrap;html=1;fillColor=#f8cecc;strokeColor=#b85450;" vertex="1" parent="1">
          <mxGeometry x="240" y="469.57" width="60" height="20" as="geometry" />
        </mxCell>
        <mxCell id="zSqDcAT_bvlXsyUkPTx3-263" value="WB" style="rounded=0;whiteSpace=wrap;html=1;fillColor=#d5e8d4;strokeColor=#82b366;" vertex="1" parent="1">
          <mxGeometry x="300" y="469.57" width="120" height="20" as="geometry" />
        </mxCell>
        <mxCell id="zSqDcAT_bvlXsyUkPTx3-264" value="RETIRE" style="rounded=0;whiteSpace=wrap;html=1;fillColor=#dae8fc;strokeColor=#6c8ebf;" vertex="1" parent="1">
          <mxGeometry x="420" y="469.57" width="60" height="20" as="geometry" />
        </mxCell>
        <mxCell id="zSqDcAT_bvlXsyUkPTx3-270" value="FETCH" style="rounded=0;whiteSpace=wrap;html=1;fillColor=#f5f5f5;fontColor=#333333;strokeColor=#666666;" vertex="1" parent="1">
          <mxGeometry x="-180" y="439.57" width="60" height="20" as="geometry" />
        </mxCell>
        <mxCell id="zSqDcAT_bvlXsyUkPTx3-271" value="DECODE" style="rounded=0;whiteSpace=wrap;html=1;fillColor=#fff2cc;strokeColor=#d6b656;" vertex="1" parent="1">
          <mxGeometry x="-120" y="439.57" width="60" height="20" as="geometry" />
        </mxCell>
        <mxCell id="zSqDcAT_bvlXsyUkPTx3-272" value="RR" style="rounded=0;whiteSpace=wrap;html=1;fillColor=#e1d5e7;strokeColor=#9673a6;" vertex="1" parent="1">
          <mxGeometry x="-60" y="439.57" width="60" height="20" as="geometry" />
        </mxCell>
        <mxCell id="zSqDcAT_bvlXsyUkPTx3-273" value="ISSUE" style="rounded=0;whiteSpace=wrap;html=1;fillColor=#ffe6cc;strokeColor=#d79b00;" vertex="1" parent="1">
          <mxGeometry y="439.57" width="60" height="20" as="geometry" />
        </mxCell>
        <mxCell id="zSqDcAT_bvlXsyUkPTx3-274" value="EXE" style="rounded=0;whiteSpace=wrap;html=1;fillColor=#f8cecc;strokeColor=#b85450;" vertex="1" parent="1">
          <mxGeometry x="60" y="439.57" width="60" height="20" as="geometry" />
        </mxCell>
        <mxCell id="zSqDcAT_bvlXsyUkPTx3-275" value="WB" style="rounded=0;whiteSpace=wrap;html=1;fillColor=#d5e8d4;strokeColor=#82b366;" vertex="1" parent="1">
          <mxGeometry x="120" y="439.57" width="240" height="20" as="geometry" />
        </mxCell>
        <mxCell id="zSqDcAT_bvlXsyUkPTx3-276" value="RETIRE" style="rounded=0;whiteSpace=wrap;html=1;fillColor=#dae8fc;strokeColor=#6c8ebf;" vertex="1" parent="1">
          <mxGeometry x="360" y="439.57" width="60" height="20" as="geometry" />
        </mxCell>
        <mxCell id="zSqDcAT_bvlXsyUkPTx3-292" value="FETCH" style="rounded=0;whiteSpace=wrap;html=1;fillColor=#f5f5f5;fontColor=#333333;strokeColor=#666666;" vertex="1" parent="1">
          <mxGeometry x="120" y="590" width="60" height="20" as="geometry" />
        </mxCell>
        <mxCell id="zSqDcAT_bvlXsyUkPTx3-293" value="DECODE" style="rounded=0;whiteSpace=wrap;html=1;fillColor=#fff2cc;strokeColor=#d6b656;" vertex="1" parent="1">
          <mxGeometry x="180" y="590" width="60" height="20" as="geometry" />
        </mxCell>
        <mxCell id="zSqDcAT_bvlXsyUkPTx3-294" value="RR" style="rounded=0;whiteSpace=wrap;html=1;fillColor=#e1d5e7;strokeColor=#9673a6;" vertex="1" parent="1">
          <mxGeometry x="240" y="590" width="60" height="20" as="geometry" />
        </mxCell>
        <mxCell id="zSqDcAT_bvlXsyUkPTx3-295" value="ISSUE" style="rounded=0;whiteSpace=wrap;html=1;fillColor=#ffe6cc;strokeColor=#d79b00;" vertex="1" parent="1">
          <mxGeometry x="300" y="590" width="60" height="20" as="geometry" />
        </mxCell>
        <mxCell id="zSqDcAT_bvlXsyUkPTx3-296" value="EXE" style="rounded=0;whiteSpace=wrap;html=1;fillColor=#f8cecc;strokeColor=#b85450;" vertex="1" parent="1">
          <mxGeometry x="360" y="590" width="60" height="20" as="geometry" />
        </mxCell>
        <mxCell id="zSqDcAT_bvlXsyUkPTx3-297" value="WB" style="rounded=0;whiteSpace=wrap;html=1;fillColor=#d5e8d4;strokeColor=#82b366;" vertex="1" parent="1">
          <mxGeometry x="420" y="590" width="240" height="20" as="geometry" />
        </mxCell>
        <mxCell id="zSqDcAT_bvlXsyUkPTx3-298" value="NOP" style="rounded=0;whiteSpace=wrap;html=1;" vertex="1" parent="1">
          <mxGeometry x="660" y="590" width="60" height="20" as="geometry" />
        </mxCell>
        <mxCell id="zSqDcAT_bvlXsyUkPTx3-299" value="FETCH" style="rounded=0;whiteSpace=wrap;html=1;fillColor=#f5f5f5;fontColor=#333333;strokeColor=#666666;" vertex="1" parent="1">
          <mxGeometry x="-240" y="410" width="60" height="20" as="geometry" />
        </mxCell>
        <mxCell id="zSqDcAT_bvlXsyUkPTx3-300" value="DECODE" style="rounded=0;whiteSpace=wrap;html=1;fillColor=#fff2cc;strokeColor=#d6b656;" vertex="1" parent="1">
          <mxGeometry x="-180" y="410" width="60" height="20" as="geometry" />
        </mxCell>
        <mxCell id="zSqDcAT_bvlXsyUkPTx3-301" value="RR" style="rounded=0;whiteSpace=wrap;html=1;fillColor=#e1d5e7;strokeColor=#9673a6;" vertex="1" parent="1">
          <mxGeometry x="-120" y="410" width="60" height="20" as="geometry" />
        </mxCell>
        <mxCell id="zSqDcAT_bvlXsyUkPTx3-302" value="ISSUE" style="rounded=0;whiteSpace=wrap;html=1;fillColor=#ffe6cc;strokeColor=#d79b00;" vertex="1" parent="1">
          <mxGeometry x="-60" y="410" width="180" height="20" as="geometry" />
        </mxCell>
        <mxCell id="zSqDcAT_bvlXsyUkPTx3-303" value="EXE" style="rounded=0;whiteSpace=wrap;html=1;fillColor=#f8cecc;strokeColor=#b85450;" vertex="1" parent="1">
          <mxGeometry x="120" y="410" width="120" height="20" as="geometry" />
        </mxCell>
        <mxCell id="zSqDcAT_bvlXsyUkPTx3-304" value="WB" style="rounded=0;whiteSpace=wrap;html=1;fillColor=#d5e8d4;strokeColor=#82b366;" vertex="1" parent="1">
          <mxGeometry x="240" y="410" width="60" height="20" as="geometry" />
        </mxCell>
        <mxCell id="zSqDcAT_bvlXsyUkPTx3-305" value="RETIRE" style="rounded=0;whiteSpace=wrap;html=1;fillColor=#dae8fc;strokeColor=#6c8ebf;" vertex="1" parent="1">
          <mxGeometry x="300" y="410" width="60" height="20" as="geometry" />
        </mxCell>
        <mxCell id="zSqDcAT_bvlXsyUkPTx3-307" value="" style="endArrow=openThin;html=1;rounded=0;endFill=0;fillColor=#f8cecc;strokeColor=#b85450;" edge="1" parent="1">
          <mxGeometry width="50" height="50" relative="1" as="geometry">
            <mxPoint x="190" y="429.57" as="sourcePoint" />
            <mxPoint x="190" y="469" as="targetPoint" />
          </mxGeometry>
        </mxCell>
        <mxCell id="zSqDcAT_bvlXsyUkPTx3-308" value="" style="endArrow=openThin;html=1;rounded=0;endFill=0;fillColor=#f8cecc;strokeColor=#b85450;" edge="1" parent="1">
          <mxGeometry width="50" height="50" relative="1" as="geometry">
            <mxPoint x="310" y="519.71" as="sourcePoint" />
            <mxPoint x="310" y="529.57" as="targetPoint" />
          </mxGeometry>
        </mxCell>
        <mxCell id="zSqDcAT_bvlXsyUkPTx3-334" value="" style="endArrow=none;html=1;rounded=0;" edge="1" parent="1">
          <mxGeometry width="50" height="50" relative="1" as="geometry">
            <mxPoint x="-270" y="380" as="sourcePoint" />
            <mxPoint x="-240" y="380" as="targetPoint" />
          </mxGeometry>
        </mxCell>
        <mxCell id="zSqDcAT_bvlXsyUkPTx3-337" value="" style="endArrow=none;html=1;rounded=0;" edge="1" parent="1">
          <mxGeometry width="50" height="50" relative="1" as="geometry">
            <mxPoint x="-240" y="360" as="sourcePoint" />
            <mxPoint x="-240" y="380" as="targetPoint" />
          </mxGeometry>
        </mxCell>
        <mxCell id="zSqDcAT_bvlXsyUkPTx3-338" value="" style="endArrow=none;html=1;rounded=0;" edge="1" parent="1">
          <mxGeometry width="50" height="50" relative="1" as="geometry">
            <mxPoint x="-240" y="360" as="sourcePoint" />
            <mxPoint x="-210" y="360" as="targetPoint" />
          </mxGeometry>
        </mxCell>
        <mxCell id="zSqDcAT_bvlXsyUkPTx3-339" value="" style="endArrow=none;html=1;rounded=0;" edge="1" parent="1">
          <mxGeometry width="50" height="50" relative="1" as="geometry">
            <mxPoint x="-210" y="360" as="sourcePoint" />
            <mxPoint x="-210" y="380" as="targetPoint" />
          </mxGeometry>
        </mxCell>
        <mxCell id="zSqDcAT_bvlXsyUkPTx3-340" value="" style="endArrow=none;html=1;rounded=0;" edge="1" parent="1">
          <mxGeometry width="50" height="50" relative="1" as="geometry">
            <mxPoint x="-210" y="380" as="sourcePoint" />
            <mxPoint x="-180" y="380" as="targetPoint" />
          </mxGeometry>
        </mxCell>
        <mxCell id="zSqDcAT_bvlXsyUkPTx3-341" value="" style="endArrow=none;html=1;rounded=0;" edge="1" parent="1">
          <mxGeometry width="50" height="50" relative="1" as="geometry">
            <mxPoint x="-180" y="360" as="sourcePoint" />
            <mxPoint x="-150" y="360" as="targetPoint" />
          </mxGeometry>
        </mxCell>
        <mxCell id="zSqDcAT_bvlXsyUkPTx3-342" value="" style="endArrow=none;html=1;rounded=0;" edge="1" parent="1">
          <mxGeometry width="50" height="50" relative="1" as="geometry">
            <mxPoint x="-150" y="380" as="sourcePoint" />
            <mxPoint x="-120" y="380" as="targetPoint" />
          </mxGeometry>
        </mxCell>
        <mxCell id="zSqDcAT_bvlXsyUkPTx3-343" value="" style="endArrow=none;html=1;rounded=0;" edge="1" parent="1">
          <mxGeometry width="50" height="50" relative="1" as="geometry">
            <mxPoint x="-180" y="360" as="sourcePoint" />
            <mxPoint x="-180" y="380" as="targetPoint" />
          </mxGeometry>
        </mxCell>
        <mxCell id="zSqDcAT_bvlXsyUkPTx3-344" value="" style="endArrow=none;html=1;rounded=0;" edge="1" parent="1">
          <mxGeometry width="50" height="50" relative="1" as="geometry">
            <mxPoint x="-150" y="360" as="sourcePoint" />
            <mxPoint x="-150" y="380" as="targetPoint" />
          </mxGeometry>
        </mxCell>
        <mxCell id="zSqDcAT_bvlXsyUkPTx3-345" value="" style="endArrow=none;html=1;rounded=0;" edge="1" parent="1">
          <mxGeometry width="50" height="50" relative="1" as="geometry">
            <mxPoint x="-120" y="360" as="sourcePoint" />
            <mxPoint x="-120" y="380" as="targetPoint" />
          </mxGeometry>
        </mxCell>
        <mxCell id="zSqDcAT_bvlXsyUkPTx3-346" value="" style="endArrow=none;html=1;rounded=0;" edge="1" parent="1">
          <mxGeometry width="50" height="50" relative="1" as="geometry">
            <mxPoint x="-120" y="360" as="sourcePoint" />
            <mxPoint x="-90" y="360" as="targetPoint" />
          </mxGeometry>
        </mxCell>
        <mxCell id="zSqDcAT_bvlXsyUkPTx3-347" value="" style="endArrow=none;html=1;rounded=0;" edge="1" parent="1">
          <mxGeometry width="50" height="50" relative="1" as="geometry">
            <mxPoint x="-90" y="360" as="sourcePoint" />
            <mxPoint x="-90" y="380" as="targetPoint" />
          </mxGeometry>
        </mxCell>
        <mxCell id="zSqDcAT_bvlXsyUkPTx3-348" value="" style="endArrow=none;html=1;rounded=0;" edge="1" parent="1">
          <mxGeometry width="50" height="50" relative="1" as="geometry">
            <mxPoint x="-90" y="380" as="sourcePoint" />
            <mxPoint x="-60" y="380" as="targetPoint" />
          </mxGeometry>
        </mxCell>
        <mxCell id="zSqDcAT_bvlXsyUkPTx3-349" value="" style="endArrow=none;html=1;rounded=0;" edge="1" parent="1">
          <mxGeometry width="50" height="50" relative="1" as="geometry">
            <mxPoint x="-60" y="360" as="sourcePoint" />
            <mxPoint x="-30" y="360" as="targetPoint" />
          </mxGeometry>
        </mxCell>
        <mxCell id="zSqDcAT_bvlXsyUkPTx3-351" value="" style="endArrow=none;html=1;rounded=0;" edge="1" parent="1">
          <mxGeometry width="50" height="50" relative="1" as="geometry">
            <mxPoint x="-60" y="360" as="sourcePoint" />
            <mxPoint x="-60" y="380" as="targetPoint" />
          </mxGeometry>
        </mxCell>
        <mxCell id="zSqDcAT_bvlXsyUkPTx3-352" value="" style="endArrow=none;html=1;rounded=0;" edge="1" parent="1">
          <mxGeometry width="50" height="50" relative="1" as="geometry">
            <mxPoint x="-30" y="360" as="sourcePoint" />
            <mxPoint x="-30" y="380" as="targetPoint" />
          </mxGeometry>
        </mxCell>
        <mxCell id="zSqDcAT_bvlXsyUkPTx3-354" value="FETCH" style="rounded=0;whiteSpace=wrap;html=1;fillColor=#f5f5f5;fontColor=#333333;strokeColor=#666666;" vertex="1" parent="1">
          <mxGeometry x="180" y="620" width="60" height="20" as="geometry" />
        </mxCell>
        <mxCell id="zSqDcAT_bvlXsyUkPTx3-355" value="DECODE" style="rounded=0;whiteSpace=wrap;html=1;fillColor=#fff2cc;strokeColor=#d6b656;" vertex="1" parent="1">
          <mxGeometry x="240" y="620" width="60" height="20" as="geometry" />
        </mxCell>
        <mxCell id="zSqDcAT_bvlXsyUkPTx3-356" value="RR" style="rounded=0;whiteSpace=wrap;html=1;fillColor=#e1d5e7;strokeColor=#9673a6;" vertex="1" parent="1">
          <mxGeometry x="300" y="620" width="60" height="20" as="geometry" />
        </mxCell>
        <mxCell id="zSqDcAT_bvlXsyUkPTx3-357" value="ISSUE" style="rounded=0;whiteSpace=wrap;html=1;fillColor=#ffe6cc;strokeColor=#d79b00;" vertex="1" parent="1">
          <mxGeometry x="360" y="620" width="60" height="20" as="geometry" />
        </mxCell>
        <mxCell id="zSqDcAT_bvlXsyUkPTx3-358" value="EXE" style="rounded=0;whiteSpace=wrap;html=1;fillColor=#f8cecc;strokeColor=#b85450;" vertex="1" parent="1">
          <mxGeometry x="420" y="620" width="180" height="20" as="geometry" />
        </mxCell>
        <mxCell id="zSqDcAT_bvlXsyUkPTx3-359" value="WB" style="rounded=0;whiteSpace=wrap;html=1;fillColor=#d5e8d4;strokeColor=#82b366;" vertex="1" parent="1">
          <mxGeometry x="600" y="620" width="60" height="20" as="geometry" />
        </mxCell>
        <mxCell id="zSqDcAT_bvlXsyUkPTx3-360" value="NOP" style="rounded=0;whiteSpace=wrap;html=1;" vertex="1" parent="1">
          <mxGeometry x="660" y="620" width="60" height="20" as="geometry" />
        </mxCell>
        <mxCell id="zSqDcAT_bvlXsyUkPTx3-361" value="FETCH" style="rounded=0;whiteSpace=wrap;html=1;fillColor=#f5f5f5;fontColor=#333333;strokeColor=#666666;" vertex="1" parent="1">
          <mxGeometry x="240" y="650" width="60" height="20" as="geometry" />
        </mxCell>
        <mxCell id="zSqDcAT_bvlXsyUkPTx3-362" value="DECODE" style="rounded=0;whiteSpace=wrap;html=1;fillColor=#fff2cc;strokeColor=#d6b656;" vertex="1" parent="1">
          <mxGeometry x="300" y="650" width="60" height="20" as="geometry" />
        </mxCell>
        <mxCell id="zSqDcAT_bvlXsyUkPTx3-363" value="RR" style="rounded=0;whiteSpace=wrap;html=1;fillColor=#e1d5e7;strokeColor=#9673a6;" vertex="1" parent="1">
          <mxGeometry x="360" y="650" width="60" height="20" as="geometry" />
        </mxCell>
        <mxCell id="zSqDcAT_bvlXsyUkPTx3-364" value="ISSUE" style="rounded=0;whiteSpace=wrap;html=1;fillColor=#ffe6cc;strokeColor=#d79b00;" vertex="1" parent="1">
          <mxGeometry x="420" y="650" width="240" height="20" as="geometry" />
        </mxCell>
        <mxCell id="zSqDcAT_bvlXsyUkPTx3-367" value="NOP" style="rounded=0;whiteSpace=wrap;html=1;" vertex="1" parent="1">
          <mxGeometry x="660" y="650" width="60" height="20" as="geometry" />
        </mxCell>
        <mxCell id="zSqDcAT_bvlXsyUkPTx3-368" value="FETCH" style="rounded=0;whiteSpace=wrap;html=1;fillColor=#f5f5f5;fontColor=#333333;strokeColor=#666666;" vertex="1" parent="1">
          <mxGeometry x="300" y="680" width="60" height="20" as="geometry" />
        </mxCell>
        <mxCell id="zSqDcAT_bvlXsyUkPTx3-369" value="DECODE" style="rounded=0;whiteSpace=wrap;html=1;fillColor=#fff2cc;strokeColor=#d6b656;" vertex="1" parent="1">
          <mxGeometry x="360" y="680" width="60" height="20" as="geometry" />
        </mxCell>
        <mxCell id="zSqDcAT_bvlXsyUkPTx3-370" value="RR" style="rounded=0;whiteSpace=wrap;html=1;fillColor=#e1d5e7;strokeColor=#9673a6;" vertex="1" parent="1">
          <mxGeometry x="420" y="680" width="60" height="20" as="geometry" />
        </mxCell>
        <mxCell id="zSqDcAT_bvlXsyUkPTx3-371" value="ISSUE" style="rounded=0;whiteSpace=wrap;html=1;fillColor=#ffe6cc;strokeColor=#d79b00;" vertex="1" parent="1">
          <mxGeometry x="480" y="680" width="60" height="20" as="geometry" />
        </mxCell>
        <mxCell id="zSqDcAT_bvlXsyUkPTx3-372" value="EXE" style="rounded=0;whiteSpace=wrap;html=1;fillColor=#f8cecc;strokeColor=#b85450;" vertex="1" parent="1">
          <mxGeometry x="540" y="680" width="60" height="20" as="geometry" />
        </mxCell>
        <mxCell id="zSqDcAT_bvlXsyUkPTx3-373" value="WB" style="rounded=0;whiteSpace=wrap;html=1;fillColor=#d5e8d4;strokeColor=#82b366;" vertex="1" parent="1">
          <mxGeometry x="600" y="680" width="60" height="20" as="geometry" />
        </mxCell>
        <mxCell id="zSqDcAT_bvlXsyUkPTx3-374" value="NOP" style="rounded=0;whiteSpace=wrap;html=1;" vertex="1" parent="1">
          <mxGeometry x="660" y="680" width="60" height="20" as="geometry" />
        </mxCell>
        <mxCell id="zSqDcAT_bvlXsyUkPTx3-375" value="FETCH" style="rounded=0;whiteSpace=wrap;html=1;fillColor=#f5f5f5;fontColor=#333333;strokeColor=#666666;" vertex="1" parent="1">
          <mxGeometry x="360" y="710" width="60" height="20" as="geometry" />
        </mxCell>
        <mxCell id="zSqDcAT_bvlXsyUkPTx3-376" value="DECODE" style="rounded=0;whiteSpace=wrap;html=1;fillColor=#fff2cc;strokeColor=#d6b656;" vertex="1" parent="1">
          <mxGeometry x="420" y="710" width="60" height="20" as="geometry" />
        </mxCell>
        <mxCell id="zSqDcAT_bvlXsyUkPTx3-377" value="RR" style="rounded=0;whiteSpace=wrap;html=1;fillColor=#e1d5e7;strokeColor=#9673a6;" vertex="1" parent="1">
          <mxGeometry x="480" y="710" width="60" height="20" as="geometry" />
        </mxCell>
        <mxCell id="zSqDcAT_bvlXsyUkPTx3-378" value="ISSUE" style="rounded=0;whiteSpace=wrap;html=1;fillColor=#ffe6cc;strokeColor=#d79b00;" vertex="1" parent="1">
          <mxGeometry x="540" y="710" width="60" height="20" as="geometry" />
        </mxCell>
        <mxCell id="zSqDcAT_bvlXsyUkPTx3-379" value="EXE" style="rounded=0;whiteSpace=wrap;html=1;fillColor=#f8cecc;strokeColor=#b85450;" vertex="1" parent="1">
          <mxGeometry x="600" y="710" width="60" height="20" as="geometry" />
        </mxCell>
        <mxCell id="zSqDcAT_bvlXsyUkPTx3-381" value="NOP" style="rounded=0;whiteSpace=wrap;html=1;" vertex="1" parent="1">
          <mxGeometry x="660" y="710" width="60" height="20" as="geometry" />
        </mxCell>
        <mxCell id="zSqDcAT_bvlXsyUkPTx3-382" value="FETCH" style="rounded=0;whiteSpace=wrap;html=1;fillColor=#f5f5f5;fontColor=#333333;strokeColor=#666666;" vertex="1" parent="1">
          <mxGeometry x="420" y="740" width="60" height="20" as="geometry" />
        </mxCell>
        <mxCell id="zSqDcAT_bvlXsyUkPTx3-383" value="DECODE" style="rounded=0;whiteSpace=wrap;html=1;fillColor=#fff2cc;strokeColor=#d6b656;" vertex="1" parent="1">
          <mxGeometry x="480" y="740" width="60" height="20" as="geometry" />
        </mxCell>
        <mxCell id="zSqDcAT_bvlXsyUkPTx3-384" value="RR" style="rounded=0;whiteSpace=wrap;html=1;fillColor=#e1d5e7;strokeColor=#9673a6;" vertex="1" parent="1">
          <mxGeometry x="540" y="740" width="60" height="20" as="geometry" />
        </mxCell>
        <mxCell id="zSqDcAT_bvlXsyUkPTx3-385" value="ISSUE" style="rounded=0;whiteSpace=wrap;html=1;fillColor=#ffe6cc;strokeColor=#d79b00;" vertex="1" parent="1">
          <mxGeometry x="600" y="740" width="60" height="20" as="geometry" />
        </mxCell>
        <mxCell id="zSqDcAT_bvlXsyUkPTx3-388" value="NOP" style="rounded=0;whiteSpace=wrap;html=1;" vertex="1" parent="1">
          <mxGeometry x="660" y="740" width="60" height="20" as="geometry" />
        </mxCell>
        <mxCell id="zSqDcAT_bvlXsyUkPTx3-389" value="FETCH" style="rounded=0;whiteSpace=wrap;html=1;fillColor=#f5f5f5;fontColor=#333333;strokeColor=#666666;" vertex="1" parent="1">
          <mxGeometry x="480" y="770" width="60" height="20" as="geometry" />
        </mxCell>
        <mxCell id="zSqDcAT_bvlXsyUkPTx3-390" value="DECODE" style="rounded=0;whiteSpace=wrap;html=1;fillColor=#fff2cc;strokeColor=#d6b656;" vertex="1" parent="1">
          <mxGeometry x="540" y="770" width="60" height="20" as="geometry" />
        </mxCell>
        <mxCell id="zSqDcAT_bvlXsyUkPTx3-391" value="RR" style="rounded=0;whiteSpace=wrap;html=1;fillColor=#e1d5e7;strokeColor=#9673a6;" vertex="1" parent="1">
          <mxGeometry x="600" y="770" width="60" height="20" as="geometry" />
        </mxCell>
        <mxCell id="zSqDcAT_bvlXsyUkPTx3-395" value="NOP" style="rounded=0;whiteSpace=wrap;html=1;" vertex="1" parent="1">
          <mxGeometry x="660" y="770" width="60" height="20" as="geometry" />
        </mxCell>
        <mxCell id="zSqDcAT_bvlXsyUkPTx3-396" value="FETCH" style="rounded=0;whiteSpace=wrap;html=1;fillColor=#f5f5f5;fontColor=#333333;strokeColor=#666666;" vertex="1" parent="1">
          <mxGeometry x="540" y="800" width="60" height="20" as="geometry" />
        </mxCell>
        <mxCell id="zSqDcAT_bvlXsyUkPTx3-397" value="DECODE" style="rounded=0;whiteSpace=wrap;html=1;fillColor=#fff2cc;strokeColor=#d6b656;" vertex="1" parent="1">
          <mxGeometry x="600" y="800" width="60" height="20" as="geometry" />
        </mxCell>
        <mxCell id="zSqDcAT_bvlXsyUkPTx3-399" value="NOP" style="rounded=0;whiteSpace=wrap;html=1;" vertex="1" parent="1">
          <mxGeometry x="660" y="800" width="60" height="20" as="geometry" />
        </mxCell>
        <mxCell id="zSqDcAT_bvlXsyUkPTx3-400" value="FETCH" style="rounded=0;whiteSpace=wrap;html=1;fillColor=#f5f5f5;fontColor=#333333;strokeColor=#666666;" vertex="1" parent="1">
          <mxGeometry x="600" y="830" width="60" height="20" as="geometry" />
        </mxCell>
        <mxCell id="zSqDcAT_bvlXsyUkPTx3-403" value="NOP" style="rounded=0;whiteSpace=wrap;html=1;" vertex="1" parent="1">
          <mxGeometry x="660" y="830" width="60" height="20" as="geometry" />
        </mxCell>
        <mxCell id="zSqDcAT_bvlXsyUkPTx3-404" value="FETCH" style="rounded=0;whiteSpace=wrap;html=1;fillColor=#f5f5f5;fontColor=#333333;strokeColor=#666666;" vertex="1" parent="1">
          <mxGeometry x="660" y="860" width="60" height="20" as="geometry" />
        </mxCell>
        <mxCell id="zSqDcAT_bvlXsyUkPTx3-405" value="DECODE" style="rounded=0;whiteSpace=wrap;html=1;fillColor=#fff2cc;strokeColor=#d6b656;" vertex="1" parent="1">
          <mxGeometry x="720" y="860" width="60" height="20" as="geometry" />
        </mxCell>
        <mxCell id="zSqDcAT_bvlXsyUkPTx3-412" value="EXP" style="ellipse;shape=cloud;whiteSpace=wrap;html=1;fillColor=#a20025;fontColor=#ffffff;strokeColor=#6F0000;" vertex="1" parent="1">
          <mxGeometry x="125" y="554.57" width="50" height="30" as="geometry" />
        </mxCell>
        <mxCell id="zSqDcAT_bvlXsyUkPTx3-426" value="" style="endArrow=none;html=1;rounded=0;" edge="1" parent="1">
          <mxGeometry width="50" height="50" relative="1" as="geometry">
            <mxPoint x="660" y="360" as="sourcePoint" />
            <mxPoint x="660" y="380" as="targetPoint" />
          </mxGeometry>
        </mxCell>
        <mxCell id="zSqDcAT_bvlXsyUkPTx3-427" value="" style="endArrow=none;html=1;rounded=0;" edge="1" parent="1">
          <mxGeometry width="50" height="50" relative="1" as="geometry">
            <mxPoint x="660" y="360" as="sourcePoint" />
            <mxPoint x="690" y="360" as="targetPoint" />
          </mxGeometry>
        </mxCell>
        <mxCell id="zSqDcAT_bvlXsyUkPTx3-428" value="" style="endArrow=none;html=1;rounded=0;" edge="1" parent="1">
          <mxGeometry width="50" height="50" relative="1" as="geometry">
            <mxPoint x="690" y="360" as="sourcePoint" />
            <mxPoint x="690" y="380" as="targetPoint" />
          </mxGeometry>
        </mxCell>
        <mxCell id="zSqDcAT_bvlXsyUkPTx3-429" value="" style="endArrow=none;html=1;rounded=0;" edge="1" parent="1">
          <mxGeometry width="50" height="50" relative="1" as="geometry">
            <mxPoint x="690" y="380" as="sourcePoint" />
            <mxPoint x="720" y="380" as="targetPoint" />
          </mxGeometry>
        </mxCell>
        <mxCell id="zSqDcAT_bvlXsyUkPTx3-430" value="" style="endArrow=none;html=1;rounded=0;" edge="1" parent="1">
          <mxGeometry width="50" height="50" relative="1" as="geometry">
            <mxPoint x="720" y="360" as="sourcePoint" />
            <mxPoint x="750" y="360" as="targetPoint" />
          </mxGeometry>
        </mxCell>
        <mxCell id="zSqDcAT_bvlXsyUkPTx3-431" value="" style="endArrow=none;html=1;rounded=0;" edge="1" parent="1">
          <mxGeometry width="50" height="50" relative="1" as="geometry">
            <mxPoint x="750" y="380" as="sourcePoint" />
            <mxPoint x="780" y="380" as="targetPoint" />
          </mxGeometry>
        </mxCell>
        <mxCell id="zSqDcAT_bvlXsyUkPTx3-432" value="" style="endArrow=none;html=1;rounded=0;" edge="1" parent="1">
          <mxGeometry width="50" height="50" relative="1" as="geometry">
            <mxPoint x="720" y="360" as="sourcePoint" />
            <mxPoint x="720" y="380" as="targetPoint" />
          </mxGeometry>
        </mxCell>
        <mxCell id="zSqDcAT_bvlXsyUkPTx3-433" value="" style="endArrow=none;html=1;rounded=0;" edge="1" parent="1">
          <mxGeometry width="50" height="50" relative="1" as="geometry">
            <mxPoint x="750" y="360" as="sourcePoint" />
            <mxPoint x="750" y="380" as="targetPoint" />
          </mxGeometry>
        </mxCell>
        <mxCell id="zSqDcAT_bvlXsyUkPTx3-435" value="CSR" style="rounded=0;whiteSpace=wrap;html=1;" vertex="1" parent="1">
          <mxGeometry x="120" y="680" width="50" height="50" as="geometry" />
        </mxCell>
        <mxCell id="zSqDcAT_bvlXsyUkPTx3-436" value="" style="endArrow=openThin;html=1;rounded=0;endFill=0;fillColor=#a20025;strokeColor=#6F0000;entryX=0.6;entryY=0;entryDx=0;entryDy=0;entryPerimeter=0;" edge="1" parent="1" target="zSqDcAT_bvlXsyUkPTx3-435">
          <mxGeometry width="50" height="50" relative="1" as="geometry">
            <mxPoint x="150" y="580" as="sourcePoint" />
            <mxPoint x="149.66" y="619" as="targetPoint" />
          </mxGeometry>
        </mxCell>
        <mxCell id="zSqDcAT_bvlXsyUkPTx3-438" value="" style="endArrow=openThin;html=1;rounded=0;endFill=0;fillColor=#a20025;strokeColor=#6F0000;" edge="1" parent="1">
          <mxGeometry width="50" height="50" relative="1" as="geometry">
            <mxPoint x="160" y="730" as="sourcePoint" />
            <mxPoint x="160.34" y="870" as="targetPoint" />
          </mxGeometry>
        </mxCell>
        <mxCell id="zSqDcAT_bvlXsyUkPTx3-439" value="" style="endArrow=openThin;html=1;rounded=0;endFill=0;fillColor=#a20025;strokeColor=#6F0000;" edge="1" parent="1">
          <mxGeometry width="50" height="50" relative="1" as="geometry">
            <mxPoint x="160" y="870" as="sourcePoint" />
            <mxPoint x="655" y="869.66" as="targetPoint" />
          </mxGeometry>
        </mxCell>
        <mxCell id="zSqDcAT_bvlXsyUkPTx3-413" value="ROB" style="shape=table;startSize=20;container=1;collapsible=0;childLayout=tableLayout;fixedRows=1;rowLines=0;fontStyle=0;strokeColor=default;fontSize=16;" vertex="1" parent="1">
          <mxGeometry x="750" y="490" width="110" height="80" as="geometry" />
        </mxCell>
        <mxCell id="zSqDcAT_bvlXsyUkPTx3-414" value="" style="shape=tableRow;horizontal=0;startSize=0;swimlaneHead=0;swimlaneBody=0;top=0;left=0;bottom=0;right=0;collapsible=0;dropTarget=0;fillColor=none;points=[[0,0.5],[1,0.5]];portConstraint=eastwest;strokeColor=inherit;fontSize=16;" vertex="1" parent="zSqDcAT_bvlXsyUkPTx3-413">
          <mxGeometry y="20" width="110" height="20" as="geometry" />
        </mxCell>
        <mxCell id="zSqDcAT_bvlXsyUkPTx3-415" value="P1" style="shape=partialRectangle;html=1;whiteSpace=wrap;connectable=0;fillColor=none;top=0;left=0;bottom=0;right=0;overflow=hidden;pointerEvents=1;strokeColor=inherit;fontSize=16;" vertex="1" parent="zSqDcAT_bvlXsyUkPTx3-414">
          <mxGeometry width="21" height="20" as="geometry">
            <mxRectangle width="21" height="20" as="alternateBounds" />
          </mxGeometry>
        </mxCell>
        <mxCell id="zSqDcAT_bvlXsyUkPTx3-416" value="Value 1" style="shape=partialRectangle;html=1;whiteSpace=wrap;connectable=0;fillColor=none;top=0;left=0;bottom=0;right=0;align=left;spacingLeft=6;overflow=hidden;strokeColor=inherit;fontSize=16;" vertex="1" parent="zSqDcAT_bvlXsyUkPTx3-414">
          <mxGeometry x="21" width="89" height="20" as="geometry">
            <mxRectangle width="89" height="20" as="alternateBounds" />
          </mxGeometry>
        </mxCell>
        <mxCell id="zSqDcAT_bvlXsyUkPTx3-417" value="" style="shape=tableRow;horizontal=0;startSize=0;swimlaneHead=0;swimlaneBody=0;top=0;left=0;bottom=0;right=0;collapsible=0;dropTarget=0;fillColor=none;points=[[0,0.5],[1,0.5]];portConstraint=eastwest;strokeColor=inherit;fontSize=16;" vertex="1" parent="zSqDcAT_bvlXsyUkPTx3-413">
          <mxGeometry y="40" width="110" height="20" as="geometry" />
        </mxCell>
        <mxCell id="zSqDcAT_bvlXsyUkPTx3-418" value="P2" style="shape=partialRectangle;html=1;whiteSpace=wrap;connectable=0;fillColor=none;top=0;left=0;bottom=0;right=0;overflow=hidden;strokeColor=inherit;fontSize=16;" vertex="1" parent="zSqDcAT_bvlXsyUkPTx3-417">
          <mxGeometry width="21" height="20" as="geometry">
            <mxRectangle width="21" height="20" as="alternateBounds" />
          </mxGeometry>
        </mxCell>
        <mxCell id="zSqDcAT_bvlXsyUkPTx3-419" value="Value 2" style="shape=partialRectangle;html=1;whiteSpace=wrap;connectable=0;fillColor=none;top=0;left=0;bottom=0;right=0;align=left;spacingLeft=6;overflow=hidden;strokeColor=inherit;fontSize=16;" vertex="1" parent="zSqDcAT_bvlXsyUkPTx3-417">
          <mxGeometry x="21" width="89" height="20" as="geometry">
            <mxRectangle width="89" height="20" as="alternateBounds" />
          </mxGeometry>
        </mxCell>
        <mxCell id="zSqDcAT_bvlXsyUkPTx3-420" value="" style="shape=tableRow;horizontal=0;startSize=0;swimlaneHead=0;swimlaneBody=0;top=0;left=0;bottom=0;right=0;collapsible=0;dropTarget=0;fillColor=none;points=[[0,0.5],[1,0.5]];portConstraint=eastwest;strokeColor=inherit;fontSize=16;" vertex="1" parent="zSqDcAT_bvlXsyUkPTx3-413">
          <mxGeometry y="60" width="110" height="20" as="geometry" />
        </mxCell>
        <mxCell id="zSqDcAT_bvlXsyUkPTx3-421" value="P3" style="shape=partialRectangle;html=1;whiteSpace=wrap;connectable=0;fillColor=none;top=0;left=0;bottom=0;right=0;overflow=hidden;strokeColor=inherit;fontSize=16;" vertex="1" parent="zSqDcAT_bvlXsyUkPTx3-420">
          <mxGeometry width="21" height="20" as="geometry">
            <mxRectangle width="21" height="20" as="alternateBounds" />
          </mxGeometry>
        </mxCell>
        <mxCell id="zSqDcAT_bvlXsyUkPTx3-422" value="Value 3" style="shape=partialRectangle;html=1;whiteSpace=wrap;connectable=0;fillColor=none;top=0;left=0;bottom=0;right=0;align=left;spacingLeft=6;overflow=hidden;strokeColor=inherit;fontSize=16;" vertex="1" parent="zSqDcAT_bvlXsyUkPTx3-420">
          <mxGeometry x="21" width="89" height="20" as="geometry">
            <mxRectangle width="89" height="20" as="alternateBounds" />
          </mxGeometry>
        </mxCell>
        <mxCell id="zSqDcAT_bvlXsyUkPTx3-440" value="RAT" style="shape=table;startSize=20;container=1;collapsible=0;childLayout=tableLayout;fixedRows=1;rowLines=0;fontStyle=0;strokeColor=default;fontSize=16;" vertex="1" parent="1">
          <mxGeometry x="860.375" y="489.99999999999994" width="109.61999999999989" height="80.43000000000006" as="geometry" />
        </mxCell>
        <mxCell id="zSqDcAT_bvlXsyUkPTx3-441" value="" style="shape=tableRow;horizontal=0;startSize=0;swimlaneHead=0;swimlaneBody=0;top=0;left=0;bottom=0;right=0;collapsible=0;dropTarget=0;fillColor=none;points=[[0,0.5],[1,0.5]];portConstraint=eastwest;strokeColor=inherit;fontSize=16;" vertex="1" parent="zSqDcAT_bvlXsyUkPTx3-440">
          <mxGeometry y="20" width="109.61999999999989" height="20" as="geometry" />
        </mxCell>
        <mxCell id="zSqDcAT_bvlXsyUkPTx3-442" value="A1" style="shape=partialRectangle;html=1;whiteSpace=wrap;connectable=0;fillColor=none;top=0;left=0;bottom=0;right=0;overflow=hidden;pointerEvents=1;strokeColor=inherit;fontSize=16;" vertex="1" parent="zSqDcAT_bvlXsyUkPTx3-441">
          <mxGeometry width="20" height="20" as="geometry">
            <mxRectangle width="20" height="20" as="alternateBounds" />
          </mxGeometry>
        </mxCell>
        <mxCell id="zSqDcAT_bvlXsyUkPTx3-443" value="Value 1" style="shape=partialRectangle;html=1;whiteSpace=wrap;connectable=0;fillColor=none;top=0;left=0;bottom=0;right=0;align=left;spacingLeft=6;overflow=hidden;strokeColor=inherit;fontSize=16;" vertex="1" parent="zSqDcAT_bvlXsyUkPTx3-441">
          <mxGeometry x="20" width="90" height="20" as="geometry">
            <mxRectangle width="90" height="20" as="alternateBounds" />
          </mxGeometry>
        </mxCell>
        <mxCell id="zSqDcAT_bvlXsyUkPTx3-444" value="" style="shape=tableRow;horizontal=0;startSize=0;swimlaneHead=0;swimlaneBody=0;top=0;left=0;bottom=0;right=0;collapsible=0;dropTarget=0;fillColor=none;points=[[0,0.5],[1,0.5]];portConstraint=eastwest;strokeColor=inherit;fontSize=16;" vertex="1" parent="zSqDcAT_bvlXsyUkPTx3-440">
          <mxGeometry y="40" width="109.61999999999989" height="20" as="geometry" />
        </mxCell>
        <mxCell id="zSqDcAT_bvlXsyUkPTx3-445" value="A2" style="shape=partialRectangle;html=1;whiteSpace=wrap;connectable=0;fillColor=none;top=0;left=0;bottom=0;right=0;overflow=hidden;strokeColor=inherit;fontSize=16;" vertex="1" parent="zSqDcAT_bvlXsyUkPTx3-444">
          <mxGeometry width="20" height="20" as="geometry">
            <mxRectangle width="20" height="20" as="alternateBounds" />
          </mxGeometry>
        </mxCell>
        <mxCell id="zSqDcAT_bvlXsyUkPTx3-446" value="Value 2" style="shape=partialRectangle;html=1;whiteSpace=wrap;connectable=0;fillColor=none;top=0;left=0;bottom=0;right=0;align=left;spacingLeft=6;overflow=hidden;strokeColor=inherit;fontSize=16;" vertex="1" parent="zSqDcAT_bvlXsyUkPTx3-444">
          <mxGeometry x="20" width="90" height="20" as="geometry">
            <mxRectangle width="90" height="20" as="alternateBounds" />
          </mxGeometry>
        </mxCell>
        <mxCell id="zSqDcAT_bvlXsyUkPTx3-447" value="" style="shape=tableRow;horizontal=0;startSize=0;swimlaneHead=0;swimlaneBody=0;top=0;left=0;bottom=0;right=0;collapsible=0;dropTarget=0;fillColor=none;points=[[0,0.5],[1,0.5]];portConstraint=eastwest;strokeColor=inherit;fontSize=16;" vertex="1" parent="zSqDcAT_bvlXsyUkPTx3-440">
          <mxGeometry y="60" width="109.61999999999989" height="20" as="geometry" />
        </mxCell>
        <mxCell id="zSqDcAT_bvlXsyUkPTx3-448" value="A3" style="shape=partialRectangle;html=1;whiteSpace=wrap;connectable=0;fillColor=none;top=0;left=0;bottom=0;right=0;overflow=hidden;strokeColor=inherit;fontSize=16;" vertex="1" parent="zSqDcAT_bvlXsyUkPTx3-447">
          <mxGeometry width="20" height="20" as="geometry">
            <mxRectangle width="20" height="20" as="alternateBounds" />
          </mxGeometry>
        </mxCell>
        <mxCell id="zSqDcAT_bvlXsyUkPTx3-449" value="Value 3" style="shape=partialRectangle;html=1;whiteSpace=wrap;connectable=0;fillColor=none;top=0;left=0;bottom=0;right=0;align=left;spacingLeft=6;overflow=hidden;strokeColor=inherit;fontSize=16;" vertex="1" parent="zSqDcAT_bvlXsyUkPTx3-447">
          <mxGeometry x="20" width="90" height="20" as="geometry">
            <mxRectangle width="90" height="20" as="alternateBounds" />
          </mxGeometry>
        </mxCell>
        <mxCell id="zSqDcAT_bvlXsyUkPTx3-460" value="ISSUE QUEUE" style="shape=table;startSize=20;container=1;collapsible=0;childLayout=tableLayout;fixedRows=1;rowLines=0;fontStyle=0;strokeColor=default;fontSize=16;" vertex="1" parent="1">
          <mxGeometry x="970" y="490" width="110.01" height="80" as="geometry" />
        </mxCell>
        <mxCell id="zSqDcAT_bvlXsyUkPTx3-461" value="" style="shape=tableRow;horizontal=0;startSize=0;swimlaneHead=0;swimlaneBody=0;top=0;left=0;bottom=0;right=0;collapsible=0;dropTarget=0;fillColor=none;points=[[0,0.5],[1,0.5]];portConstraint=eastwest;strokeColor=inherit;fontSize=16;" vertex="1" parent="zSqDcAT_bvlXsyUkPTx3-460">
          <mxGeometry y="20" width="110.01" height="20" as="geometry" />
        </mxCell>
        <mxCell id="zSqDcAT_bvlXsyUkPTx3-462" value="1" style="shape=partialRectangle;html=1;whiteSpace=wrap;connectable=0;fillColor=none;top=0;left=0;bottom=0;right=0;overflow=hidden;pointerEvents=1;strokeColor=inherit;fontSize=16;" vertex="1" parent="zSqDcAT_bvlXsyUkPTx3-461">
          <mxGeometry width="21" height="20" as="geometry">
            <mxRectangle width="21" height="20" as="alternateBounds" />
          </mxGeometry>
        </mxCell>
        <mxCell id="zSqDcAT_bvlXsyUkPTx3-463" value="Value 1" style="shape=partialRectangle;html=1;whiteSpace=wrap;connectable=0;fillColor=none;top=0;left=0;bottom=0;right=0;align=left;spacingLeft=6;overflow=hidden;strokeColor=inherit;fontSize=16;" vertex="1" parent="zSqDcAT_bvlXsyUkPTx3-461">
          <mxGeometry x="21" width="89" height="20" as="geometry">
            <mxRectangle width="89" height="20" as="alternateBounds" />
          </mxGeometry>
        </mxCell>
        <mxCell id="zSqDcAT_bvlXsyUkPTx3-464" value="" style="shape=tableRow;horizontal=0;startSize=0;swimlaneHead=0;swimlaneBody=0;top=0;left=0;bottom=0;right=0;collapsible=0;dropTarget=0;fillColor=none;points=[[0,0.5],[1,0.5]];portConstraint=eastwest;strokeColor=inherit;fontSize=16;" vertex="1" parent="zSqDcAT_bvlXsyUkPTx3-460">
          <mxGeometry y="40" width="110.01" height="20" as="geometry" />
        </mxCell>
        <mxCell id="zSqDcAT_bvlXsyUkPTx3-465" value="2" style="shape=partialRectangle;html=1;whiteSpace=wrap;connectable=0;fillColor=none;top=0;left=0;bottom=0;right=0;overflow=hidden;strokeColor=inherit;fontSize=16;" vertex="1" parent="zSqDcAT_bvlXsyUkPTx3-464">
          <mxGeometry width="21" height="20" as="geometry">
            <mxRectangle width="21" height="20" as="alternateBounds" />
          </mxGeometry>
        </mxCell>
        <mxCell id="zSqDcAT_bvlXsyUkPTx3-466" value="Value 2" style="shape=partialRectangle;html=1;whiteSpace=wrap;connectable=0;fillColor=none;top=0;left=0;bottom=0;right=0;align=left;spacingLeft=6;overflow=hidden;strokeColor=inherit;fontSize=16;" vertex="1" parent="zSqDcAT_bvlXsyUkPTx3-464">
          <mxGeometry x="21" width="89" height="20" as="geometry">
            <mxRectangle width="89" height="20" as="alternateBounds" />
          </mxGeometry>
        </mxCell>
        <mxCell id="zSqDcAT_bvlXsyUkPTx3-467" value="" style="shape=tableRow;horizontal=0;startSize=0;swimlaneHead=0;swimlaneBody=0;top=0;left=0;bottom=0;right=0;collapsible=0;dropTarget=0;fillColor=none;points=[[0,0.5],[1,0.5]];portConstraint=eastwest;strokeColor=inherit;fontSize=16;" vertex="1" parent="zSqDcAT_bvlXsyUkPTx3-460">
          <mxGeometry y="60" width="110.01" height="20" as="geometry" />
        </mxCell>
        <mxCell id="zSqDcAT_bvlXsyUkPTx3-468" value="3" style="shape=partialRectangle;html=1;whiteSpace=wrap;connectable=0;fillColor=none;top=0;left=0;bottom=0;right=0;overflow=hidden;strokeColor=inherit;fontSize=16;" vertex="1" parent="zSqDcAT_bvlXsyUkPTx3-467">
          <mxGeometry width="21" height="20" as="geometry">
            <mxRectangle width="21" height="20" as="alternateBounds" />
          </mxGeometry>
        </mxCell>
        <mxCell id="zSqDcAT_bvlXsyUkPTx3-469" value="Value 3" style="shape=partialRectangle;html=1;whiteSpace=wrap;connectable=0;fillColor=none;top=0;left=0;bottom=0;right=0;align=left;spacingLeft=6;overflow=hidden;strokeColor=inherit;fontSize=16;" vertex="1" parent="zSqDcAT_bvlXsyUkPTx3-467">
          <mxGeometry x="21" width="89" height="20" as="geometry">
            <mxRectangle width="89" height="20" as="alternateBounds" />
          </mxGeometry>
        </mxCell>
        <mxCell id="zSqDcAT_bvlXsyUkPTx3-470" value="" style="endArrow=openThin;html=1;rounded=0;endFill=0;fillColor=#a20025;strokeColor=#6F0000;" edge="1" parent="1">
          <mxGeometry width="50" height="50" relative="1" as="geometry">
            <mxPoint x="650" y="550" as="sourcePoint" />
            <mxPoint x="750" y="530" as="targetPoint" />
          </mxGeometry>
        </mxCell>
        <mxCell id="zSqDcAT_bvlXsyUkPTx3-471" value="flush" style="shape=partialRectangle;html=1;whiteSpace=wrap;connectable=0;top=0;left=0;bottom=0;right=0;align=left;spacingLeft=6;overflow=hidden;fontSize=16;" vertex="1" parent="1">
          <mxGeometry x="680" y="529.5699999999999" width="48.99" height="20" as="geometry">
            <mxRectangle width="89" height="20" as="alternateBounds" />
          </mxGeometry>
        </mxCell>
        <mxCell id="zSqDcAT_bvlXsyUkPTx3-472" value="FETCH" style="rounded=0;whiteSpace=wrap;html=1;fillColor=#f5f5f5;fontColor=#333333;strokeColor=#666666;" vertex="1" parent="1">
          <mxGeometry x="720" y="880" width="60" height="20" as="geometry" />
        </mxCell>
        <mxCell id="zSqDcAT_bvlXsyUkPTx3-473" value="......" style="shape=partialRectangle;html=1;whiteSpace=wrap;connectable=0;top=0;left=0;bottom=0;right=0;align=left;spacingLeft=6;overflow=hidden;fontSize=16;" vertex="1" parent="1">
          <mxGeometry x="840" y="895" width="48.99" height="20" as="geometry">
            <mxRectangle width="89" height="20" as="alternateBounds" />
          </mxGeometry>
        </mxCell>
        <mxCell id="zSqDcAT_bvlXsyUkPTx3-474" value="FETCH" style="rounded=0;whiteSpace=wrap;html=1;fillColor=#f5f5f5;fontColor=#333333;strokeColor=#666666;" vertex="1" parent="1">
          <mxGeometry x="860" y="920" width="60" height="20" as="geometry" />
        </mxCell>
        <mxCell id="zSqDcAT_bvlXsyUkPTx3-475" value="DECODE" style="rounded=0;whiteSpace=wrap;html=1;fillColor=#fff2cc;strokeColor=#d6b656;" vertex="1" parent="1">
          <mxGeometry x="920" y="920" width="60" height="20" as="geometry" />
        </mxCell>
        <mxCell id="zSqDcAT_bvlXsyUkPTx3-476" value="" style="endArrow=openThin;html=1;rounded=0;endFill=0;fillColor=#a20025;strokeColor=#6F0000;" edge="1" parent="1">
          <mxGeometry width="50" height="50" relative="1" as="geometry">
            <mxPoint x="140" y="730" as="sourcePoint" />
            <mxPoint x="140" y="930" as="targetPoint" />
          </mxGeometry>
        </mxCell>
        <mxCell id="zSqDcAT_bvlXsyUkPTx3-477" value="" style="endArrow=openThin;html=1;rounded=0;endFill=0;fillColor=#a20025;strokeColor=#6F0000;entryX=0;entryY=0.5;entryDx=0;entryDy=0;" edge="1" parent="1" target="zSqDcAT_bvlXsyUkPTx3-474">
          <mxGeometry width="50" height="50" relative="1" as="geometry">
            <mxPoint x="142.5" y="929.9200000000001" as="sourcePoint" />
            <mxPoint x="637.5" y="929.58" as="targetPoint" />
          </mxGeometry>
        </mxCell>
        <mxCell id="zSqDcAT_bvlXsyUkPTx3-478" value="csr_mepc" style="shape=partialRectangle;html=1;whiteSpace=wrap;connectable=0;top=0;left=0;bottom=0;right=0;align=left;spacingLeft=6;overflow=hidden;fontSize=16;" vertex="1" parent="1">
          <mxGeometry x="455.51" y="915" width="84.49" height="30" as="geometry">
            <mxRectangle width="89" height="20" as="alternateBounds" />
          </mxGeometry>
        </mxCell>
        <mxCell id="zSqDcAT_bvlXsyUkPTx3-479" value="csr_mtvec_base" style="shape=partialRectangle;html=1;whiteSpace=wrap;connectable=0;top=0;left=0;bottom=0;right=0;align=left;spacingLeft=6;overflow=hidden;fontSize=16;" vertex="1" parent="1">
          <mxGeometry x="347.75" y="855" width="132.25" height="30" as="geometry">
            <mxRectangle width="89" height="20" as="alternateBounds" />
          </mxGeometry>
        </mxCell>
        <mxCell id="zSqDcAT_bvlXsyUkPTx3-480" value="FETCH" style="rounded=0;whiteSpace=wrap;html=1;fillColor=#f5f5f5;fontColor=#333333;strokeColor=#666666;" vertex="1" parent="1">
          <mxGeometry x="920" y="940" width="60" height="20" as="geometry" />
        </mxCell>
        <mxCell id="zSqDcAT_bvlXsyUkPTx3-481" value="EXP" style="ellipse;shape=cloud;whiteSpace=wrap;html=1;fillColor=#a20025;fontColor=#ffffff;strokeColor=#6F0000;" vertex="1" parent="1">
          <mxGeometry x="779.11" y="529.5699999999999" width="50" height="25.43" as="geometry" />
        </mxCell>
        <mxCell id="zSqDcAT_bvlXsyUkPTx3-483" value="RR" style="rounded=0;whiteSpace=wrap;html=1;fillColor=#e1d5e7;strokeColor=#9673a6;" vertex="1" parent="1">
          <mxGeometry x="780" y="860" width="60" height="20" as="geometry" />
        </mxCell>
        <mxCell id="zSqDcAT_bvlXsyUkPTx3-484" value="DECODE" style="rounded=0;whiteSpace=wrap;html=1;fillColor=#fff2cc;strokeColor=#d6b656;" vertex="1" parent="1">
          <mxGeometry x="780" y="880" width="60" height="20" as="geometry" />
        </mxCell>
        <mxCell id="zSqDcAT_bvlXsyUkPTx3-485" value="" style="endArrow=openThin;html=1;rounded=0;endFill=0;fillColor=#a20025;strokeColor=#6F0000;exitX=0.67;exitY=-0.164;exitDx=0;exitDy=0;exitPerimeter=0;" edge="1" parent="1" source="zSqDcAT_bvlXsyUkPTx3-483">
          <mxGeometry width="50" height="50" relative="1" as="geometry">
            <mxPoint x="807" y="809.57" as="sourcePoint" />
            <mxPoint x="840" y="559.57" as="targetPoint" />
          </mxGeometry>
        </mxCell>
        <mxCell id="zSqDcAT_bvlXsyUkPTx3-486" value="" style="endArrow=none;html=1;rounded=0;" edge="1" parent="1">
          <mxGeometry width="50" height="50" relative="1" as="geometry">
            <mxPoint x="780" y="360" as="sourcePoint" />
            <mxPoint x="810" y="360" as="targetPoint" />
          </mxGeometry>
        </mxCell>
        <mxCell id="zSqDcAT_bvlXsyUkPTx3-487" value="" style="endArrow=none;html=1;rounded=0;" edge="1" parent="1">
          <mxGeometry width="50" height="50" relative="1" as="geometry">
            <mxPoint x="810" y="380" as="sourcePoint" />
            <mxPoint x="840" y="380" as="targetPoint" />
          </mxGeometry>
        </mxCell>
        <mxCell id="zSqDcAT_bvlXsyUkPTx3-488" value="" style="endArrow=none;html=1;rounded=0;" edge="1" parent="1">
          <mxGeometry width="50" height="50" relative="1" as="geometry">
            <mxPoint x="780" y="360" as="sourcePoint" />
            <mxPoint x="780" y="380" as="targetPoint" />
          </mxGeometry>
        </mxCell>
        <mxCell id="zSqDcAT_bvlXsyUkPTx3-489" value="" style="endArrow=none;html=1;rounded=0;" edge="1" parent="1">
          <mxGeometry width="50" height="50" relative="1" as="geometry">
            <mxPoint x="810" y="360" as="sourcePoint" />
            <mxPoint x="810" y="380" as="targetPoint" />
          </mxGeometry>
        </mxCell>
      </root>
    </mxGraphModel>
  </diagram>
</mxfile>
